HIERARCHY
ROOT Pelvis
{
	OFFSET 0.000000 0.000000 0.000000
	CHANNELS 6 Xposition Yposition Zposition Xrotation Yrotation Zrotation
	JOINT LeftUpLeg_virtual
	{
		OFFSET 0.000000 0.000000 0.000000
		CHANNELS 3 Xrotation Yrotation Zrotation
		JOINT LeftUpLeg
		{
			OFFSET 8.479700 -4.795502 -0.379100
			CHANNELS 3 Xrotation Yrotation Zrotation
			JOINT LeftLeg
			{
				OFFSET 0.024144 -32.555107 0.112900
				CHANNELS 3 Xrotation Yrotation Zrotation
				JOINT LeftFoot
				{
					OFFSET -0.024144 -32.638630 -3.012600
					CHANNELS 3 Xrotation Yrotation Zrotation
					JOINT LeftToeBase
					{
						OFFSET 0.970200 -13.225400 11.864200
						CHANNELS 3 Xrotation Yrotation Zrotation
						End Site
						{
							OFFSET 0 0 0
						}
					}
				}
			}
		}
	}
	JOINT RightUpLeg_virtual
	{
		OFFSET 0.000000 0.000000 0.000000
		CHANNELS 3 Xrotation Yrotation Zrotation
		JOINT RightUpLeg
		{
			OFFSET -8.479700 -4.795502 -0.379100
			CHANNELS 3 Xrotation Yrotation Zrotation
			JOINT RightLeg
			{
				OFFSET -0.023144 -32.555092 0.112900
				CHANNELS 3 Xrotation Yrotation Zrotation
				JOINT RightFoot
				{
					OFFSET 0.023144 -32.638641 -3.012700
					CHANNELS 3 Xrotation Yrotation Zrotation
					JOINT RightToeBase
					{
						OFFSET -0.970200 -13.225400 11.864200
						CHANNELS 3 Xrotation Yrotation Zrotation
						End Site
						{
							OFFSET 0 0 0
						}
					}
				}
			}
		}
	}
	JOINT Hips_virtual
	{
		OFFSET 0.000000 0.000000 0.000000
		CHANNELS 3 Xrotation Yrotation Zrotation
		JOINT Hips
		{
			OFFSET -0.000000 -0.000000 -0.000000
			CHANNELS 3 Xrotation Yrotation Zrotation
			JOINT Spine
			{
				OFFSET 0.000000 7.722000 1.166200
				CHANNELS 3 Xrotation Yrotation Zrotation
				JOINT Spine1
				{
					OFFSET 0.000000 12.024101 0.248800
					CHANNELS 3 Xrotation Yrotation Zrotation
					JOINT Spine2
					{
						OFFSET 0.000000 11.502998 -0.491200
						CHANNELS 3 Xrotation Yrotation Zrotation
						JOINT Neck_virtual
						{
							OFFSET 0.000000 0.000000 0.000000
							CHANNELS 3 Xrotation Yrotation Zrotation
							JOINT Neck
							{
								OFFSET 0.000000 18.430702 -3.123100
								CHANNELS 3 Xrotation Yrotation Zrotation
								JOINT Head
								{
									OFFSET 0.000000 9.051102 1.034000
									CHANNELS 3 Xrotation Yrotation Zrotation
									End Site
									{
										OFFSET 0 0 0
									}
								}
							}
						}
						JOINT LeftShoulder_virtual
						{
							OFFSET 0.000000 0.000000 0.000000
							CHANNELS 3 Xrotation Yrotation Zrotation
							JOINT LeftShoulder
							{
								OFFSET 6.197800 13.665199 -4.064700
								CHANNELS 3 Xrotation Yrotation Zrotation
								JOINT LeftArm
								{
									OFFSET 7.778100 -0.187103 -1.709300
									CHANNELS 3 Xrotation Yrotation Zrotation
									JOINT LeftForeArm
									{
										OFFSET 22.049376 0.000000 0.000000
										CHANNELS 3 Xrotation Yrotation Zrotation
										JOINT LeftHand
										{
											OFFSET 23.009392 0.000000 0.000000
											CHANNELS 3 Xrotation Yrotation Zrotation
											End Site
											{
												OFFSET 0 0 0
											}
										}
									}
								}
							}
						}
						JOINT RightShoulder_virtual
						{
							OFFSET 0.000000 0.000000 0.000000
							CHANNELS 3 Xrotation Yrotation Zrotation
							JOINT RightShoulder
							{
								OFFSET -6.197800 13.665199 -4.064700
								CHANNELS 3 Xrotation Yrotation Zrotation
								JOINT RightArm
								{
									OFFSET -7.778100 -0.187103 -1.709300
									CHANNELS 3 Xrotation Yrotation Zrotation
									JOINT RightForeArm
									{
										OFFSET -22.049376 0.000000 0.000000
										CHANNELS 3 Xrotation Yrotation Zrotation
										JOINT RightHand
										{
											OFFSET -23.009392 0.000000 0.000000
											CHANNELS 3 Xrotation Yrotation Zrotation
											End Site
											{
												OFFSET 0 0 0
											}
										}
									}
								}
							}
						}
					}
				}
			}
		}
	}
}
MOTION
Frames: 9
Frame Time: 0.03333333
3.611715 77.238449 -0.067804 0.000000 0.000000 0.000000 117.155626 -87.188396 116.696514 -32.222626 33.964519 35.697478 28.284939 -8.530210 1.117936 -3.969607 5.814107 -16.560543 0.000000 0.000000 0.000000 117.155626 -87.188396 116.696514 -29.340174 -13.657843 -20.488394 14.333685 10.197593 -3.485732 5.563461 14.014750 18.731696 0.000000 0.000000 0.000000 117.155626 -87.188396 116.696514 0.000000 0.000000 0.000000 5.386290 -2.310796 -8.006818 2.771440 -0.553951 -1.077815 0.000000 0.000000 0.000000 2.777686 -0.510267 -1.087489 -12.273407 6.004527 4.761555 0.000000 0.000000 0.000000 2.777686 -0.510267 -1.087489 5.516885 -2.188421 12.208351 -41.899365 5.599311 2.227375 0.045084 -12.980539 -0.290004 0.000000 0.000000 0.000000 2.777686 -0.510267 -1.087489 -2.478558 1.878755 -16.638411 -51.925881 54.163769 47.616616 -178.637451 49.479663 -179.753162 0.000000 0.000000 0.000000 
3.612192 77.240776 -0.067860 0.000000 0.000000 0.000000 117.173685 -87.193901 116.718617 -32.205274 33.969577 35.681858 28.269608 -8.526853 1.125762 -3.961854 5.814407 -16.565205 0.000000 0.000000 0.000000 117.173685 -87.193901 116.718617 -29.327258 -13.657138 -20.494211 14.317515 10.195918 -3.477651 5.571556 14.014642 18.729048 0.000000 0.000000 0.000000 117.173685 -87.193901 116.718617 0.000000 0.000000 0.000000 5.386242 -2.310818 -8.006646 2.771401 -0.556390 -1.077454 0.000000 0.000000 0.000000 2.777603 -0.514375 -1.086861 -12.261161 5.997541 4.760196 0.000000 0.000000 0.000000 2.777603 -0.514375 -1.086861 5.518623 -2.184553 12.217436 -41.910212 5.611436 2.220991 0.057258 -13.133519 -0.286648 0.000000 0.000000 0.000000 2.777603 -0.514375 -1.086861 -2.479249 1.875584 -16.638723 -51.759959 54.134454 47.334212 179.213154 49.517301 -178.173858 0.000000 0.000000 0.000000 
3.612745 77.243408 -0.067427 0.000000 0.000000 0.000000 117.149765 -87.200745 116.698946 -32.187816 33.974932 35.664837 28.253603 -8.525891 1.133740 -3.953894 5.814755 -16.568564 0.000000 0.000000 0.000000 117.149765 -87.200745 116.698946 -29.310691 -13.656663 -20.500958 14.296789 10.191328 -3.469807 5.581068 14.014563 18.727976 0.000000 0.000000 0.000000 117.149765 -87.200745 116.698946 0.000000 0.000000 0.000000 5.386229 -2.310962 -8.006556 2.771260 -0.563897 -1.076317 0.000000 0.000000 0.000000 2.777361 -0.526629 -1.085022 -12.248463 5.976471 4.762428 0.000000 0.000000 0.000000 2.777361 -0.526629 -1.085022 5.523679 -2.173157 12.243788 -41.919282 5.652332 2.202116 0.064104 -13.136961 -0.284908 0.000000 0.000000 0.000000 2.777361 -0.526629 -1.085022 -2.480387 1.866605 -16.643231 -51.815816 54.140273 47.365231 179.227401 49.509842 -178.185442 0.000000 0.000000 0.000000 
3.613362 77.246239 -0.066460 0.000000 0.000000 0.000000 117.074633 -87.209570 116.628663 -32.171304 33.981168 35.647198 28.237522 -8.528453 1.141635 -3.945770 5.814800 -16.570287 0.000000 0.000000 0.000000 117.074633 -87.209570 116.628663 -29.291703 -13.655760 -20.508951 14.274074 10.183602 -3.462259 5.590932 14.014438 18.728090 0.000000 0.000000 0.000000 117.074633 -87.209570 116.628663 0.000000 0.000000 0.000000 5.389983 -2.310305 -8.001690 2.770427 -0.576446 -1.075723 0.000000 0.000000 0.000000 2.777964 -0.546931 -1.081946 -12.234886 5.943171 4.765606 0.000000 0.000000 0.000000 2.777964 -0.546931 -1.081946 5.535943 -2.153907 12.285025 -41.932061 5.710397 2.170938 0.070661 -13.142516 -0.283211 0.000000 0.000000 0.000000 2.777964 -0.546931 -1.081946 -2.482173 1.852226 -16.650710 -51.874850 54.138729 47.397227 179.246840 49.500789 -178.200387 0.000000 0.000000 0.000000 
3.614046 77.248871 -0.064909 0.000000 0.000000 0.000000 116.941718 -87.220184 116.501116 -32.156585 33.987605 35.629504 28.223306 -8.534461 1.149750 -3.938472 5.814672 -16.570544 0.000000 0.000000 0.000000 116.941718 -87.220184 116.501116 -29.270321 -13.650403 -20.517687 14.252420 10.168944 -3.455481 5.599370 14.014215 18.730086 0.000000 0.000000 0.000000 116.941718 -87.220184 116.501116 0.000000 0.000000 0.000000 5.412802 -2.309010 -7.986460 2.804001 -0.568245 -1.061617 0.000000 0.000000 0.000000 2.813115 -0.548237 -1.065947 -12.220985 5.899831 4.769473 0.000000 0.000000 0.000000 2.813115 -0.548237 -1.065947 5.552301 -2.127880 12.340271 -42.041126 5.758754 2.080986 0.076797 -13.147943 -0.281653 0.000000 0.000000 0.000000 2.813115 -0.548237 -1.065947 -2.484597 1.832598 -16.660979 -52.022986 54.080065 47.449013 179.274461 49.456973 -178.221601 0.000000 0.000000 0.000000 
3.614772 77.251373 -0.062706 0.000000 0.000000 0.000000 116.746511 -87.232820 116.311688 -32.142747 33.992622 35.610431 28.211268 -8.542593 1.157910 -3.932233 5.814450 -16.569252 0.000000 0.000000 0.000000 116.746511 -87.232820 116.311688 -29.246795 -13.642554 -20.527777 14.230940 10.148403 -3.449340 5.606959 14.014024 18.733872 0.000000 0.000000 0.000000 116.746511 -87.232820 116.311688 0.000000 0.000000 0.000000 5.417122 -2.319169 -7.978653 2.800830 -0.598421 -1.062298 0.000000 0.000000 0.000000 2.812458 -0.591537 -1.061994 -12.207123 5.847494 4.776036 0.000000 0.000000 0.000000 2.812458 -0.591537 -1.061994 5.572266 -2.095463 12.408025 -42.053195 5.860818 2.043684 0.082688 -13.154903 -0.279975 0.000000 0.000000 0.000000 2.812458 -0.591537 -1.061994 -2.487568 1.808128 -16.674015 -52.112151 54.084607 47.504304 179.304869 49.476200 -178.244305 0.000000 0.000000 0.000000 
3.615539 77.253929 -0.059816 0.000000 0.000000 0.000000 116.484901 -87.247286 116.056348 -32.127704 33.995016 35.588178 28.200236 -8.550770 1.166248 -3.926603 5.814091 -16.567102 0.000000 0.000000 0.000000 116.484901 -87.247286 116.056348 -29.220239 -13.633148 -20.539171 14.207832 10.122915 -3.443762 5.614277 14.013712 18.739438 0.000000 0.000000 0.000000 116.484901 -87.247286 116.056348 0.000000 0.000000 0.000000 5.425056 -2.323920 -7.967271 2.800295 -0.616390 -1.060635 0.000000 0.000000 0.000000 2.814544 -0.624593 -1.055656 -12.191937 5.786890 4.782603 0.000000 0.000000 0.000000 2.814544 -0.624593 -1.055656 5.595410 -2.057293 12.486844 -42.079351 5.946076 1.971281 0.088181 -13.162931 -0.278386 0.000000 0.000000 0.000000 2.814544 -0.624593 -1.055656 -2.491063 1.778943 -16.689697 -52.210509 54.072057 47.554834 179.342476 49.475974 -178.272391 0.000000 0.000000 0.000000 
3.616339 77.256477 -0.056170 0.000000 0.000000 0.000000 116.151902 -87.264047 115.730070 -32.112182 33.994972 35.563347 28.190670 -8.559929 1.174753 -3.921670 5.813672 -16.563883 0.000000 0.000000 0.000000 116.151902 -87.264047 115.730070 -29.191511 -13.621582 -20.551932 14.184979 10.091060 -3.439111 5.620513 14.014299 18.746865 0.000000 0.000000 0.000000 116.151902 -87.264047 115.730070 0.000000 0.000000 0.000000 5.432928 -2.333745 -7.954870 2.798415 -0.647166 -1.054968 0.000000 0.000000 0.000000 2.815891 -0.673989 -1.048855 -12.177498 5.720865 4.791235 0.000000 0.000000 0.000000 2.815891 -0.673989 -1.048855 5.621144 -2.013621 12.575165 -42.101781 6.060026 1.905449 0.093312 -13.171332 -0.276943 0.000000 0.000000 0.000000 2.815891 -0.673989 -1.048855 -2.494991 1.745773 -16.707893 -52.321530 54.065783 47.617951 179.383485 49.495014 -178.301829 0.000000 0.000000 0.000000 
3.617154 77.259079 -0.051702 0.000000 0.000000 0.000000 115.740738 -87.282496 115.326064 -32.095971 33.992465 35.535616 28.182429 -8.569908 1.183285 -3.917562 5.813118 -16.559259 0.000000 0.000000 0.000000 115.740738 -87.282496 115.326064 -29.159000 -13.608897 -20.566137 14.158830 10.054031 -3.434995 5.627339 14.014780 18.756456 0.000000 0.000000 0.000000 115.740738 -87.282496 115.326064 0.000000 0.000000 0.000000 5.461906 -2.336244 -7.934036 2.833650 -0.661685 -1.051222 0.000000 0.000000 0.000000 2.854473 -0.705637 -1.031751 -12.162019 5.650277 4.799958 0.000000 0.000000 0.000000 2.854473 -0.705637 -1.031751 5.649068 -1.965047 12.671607 -42.224670 6.161097 1.794988 0.098121 -13.179243 -0.275509 0.000000 0.000000 0.000000 2.854473 -0.705637 -1.031751 -2.499395 1.708558 -16.728571 -52.498200 53.995190 47.685905 179.427731 49.466245 -178.333589 0.000000 0.000000 0.000000 
